<?xml version="1.0" encoding="UTF-8"?>
<svg width="474px" height="240px" viewBox="0 0 474 240" version="1.1" xmlns="http://www.w3.org/2000/svg" xmlns:xlink="http://www.w3.org/1999/xlink">
    <!-- Generator: Sketch 43.1 (39012) - http://www.bohemiancoding.com/sketch -->
    <title>Group</title>
    <desc>Created with Sketch.</desc>
    <defs></defs>
    <g id="Page-1" stroke="none" stroke-width="1" fill="none" fill-rule="evenodd">
        <g id="Artboard" transform="translate(-43.000000, -33.000000)">
            <g id="Group" transform="translate(43.000000, 33.000000)">
                <rect id="Rectangle" fill="#139FCE" x="0" y="0" width="473.520936" height="239.143242"></rect>
                <g id="iwr-logo" transform="translate(49.760468, 40.071621)" fill-rule="nonzero" fill="#FFFFFF">
                    <path d="M41.2235425,0.259355316 L1.12355256,0.259355316 L1.12355256,124.989169 L41.2235425,124.989169 L41.2235425,0.259355316 Z M236.860196,0.259355316 L196.938638,0.259355316 L183.566815,70.9885774 L182.775684,70.9885774 L167.726272,0.259355316 L128.244684,0.259355316 L114.075212,70.9885774 L113.366371,70.9885774 L99.0331324,0.259355316 L57.3362149,0.259355316 L86.5485814,124.989169 L130.631113,124.989169 L146.747859,49.032454 L147.448552,49.032454 L163.565298,124.989169 L207.64783,124.989169 L236.860196,0.259355316 Z M369.562426,38.5008801 C369.562426,33.4257468 368.678413,28.5860788 366.907942,23.9818761 C365.133397,19.3768587 362.475653,15.3218035 358.935526,11.8093778 C355.395398,8.30102589 351.000588,5.49662567 345.750282,3.39862145 C340.494272,1.30387626 334.414541,0.259355316 327.508644,0.259355316 L251.200768,0.259355316 L251.200768,124.989169 L291.219282,124.989169 L291.219282,79.4889573 L306.089447,79.4889573 L328.217485,124.989169 L373.187289,124.989169 L345.482226,72.7639371 C349.494914,71.2851497 353.004081,69.3533563 356.012985,66.9604093 C359.025149,64.5690919 361.533792,61.8697956 363.537284,58.8617056 C365.545665,55.8544304 367.052154,52.621467 368.055937,49.167704 C369.061349,45.7171999 369.562426,42.1607772 369.562426,38.5008801 L369.562426,38.5008801 Z M328.747078,40.1800983 C328.747078,41.8365032 328.453765,43.3706942 327.867138,44.7900043 C327.275623,46.20687 326.462494,47.4290084 325.428565,48.4580489 C324.39871,49.491978 323.205902,50.3051074 321.847699,50.8966224 C320.491126,51.4832488 319.044114,51.776562 317.508293,51.776562 L291.219282,51.776562 L291.219282,28.7636962 L317.508293,28.7636962 C319.044114,28.7636962 320.491126,29.0423438 321.847699,29.6045275 C323.205902,30.1667111 324.39871,30.9496944 325.428565,31.9534774 C326.462494,32.9548161 327.275623,34.1614741 327.867138,35.5783399 C328.453765,36.9952056 328.747078,38.5302115 328.747078,40.1800983 Z" id="Shape"></path>
                    <path d="M6.1766874,135.696731 L0.576849318,135.696731 L0.576849318,153.116277 L6.1766874,153.116277 L6.1766874,135.696731 Z M15.8926876,135.696731 L12.1521293,135.696731 L11.0579081,139.752601 L8.98434665,139.752601 L8.98434665,143.163182 L10.8664398,143.163182 L10.8664398,149.849908 C10.8664398,150.531862 10.9788765,151.103822 11.2029352,151.564161 C11.4278087,152.023685 11.7439351,152.389512 12.1521293,152.665715 C12.5595088,152.940289 13.0491789,153.137461 13.6203249,153.253971 C14.1865824,153.366408 14.813132,153.422626 15.502418,153.422626 C15.7224029,153.422626 15.9749782,153.413664 16.2593291,153.39248 C16.5453095,153.370482 16.8361784,153.34115 17.1319359,153.301227 C17.4285081,153.258045 17.716118,153.210789 17.9963951,153.154571 C18.2774869,153.098352 18.5243589,153.03806 18.7386405,152.97125 L18.7386405,150.002268 L17.3152566,150.002268 C17.030091,150.002268 16.7946257,149.963975 16.6113049,149.888202 C16.4328727,149.816503 16.2902899,149.707326 16.1835565,149.559039 C16.0760083,149.407494 15.999421,149.221729 15.9546092,149.008262 C15.9130565,148.793981 15.8926876,148.54385 15.8926876,148.258684 L15.8926876,143.163182 L18.7386405,143.163182 L18.7386405,139.752601 L15.8926876,139.752601 L15.8926876,135.696731 Z M26.0983578,134.755685 L21.0647772,134.755685 L21.0647772,153.116277 L26.0983578,153.116277 L26.0983578,145.266889 C26.0983578,144.986612 26.1472434,144.718557 26.2441997,144.464352 C26.3403412,144.209332 26.482924,143.985274 26.6719481,143.789732 C26.8560836,143.598263 27.0776981,143.444274 27.3384209,143.331837 C27.598329,143.2194 27.8826799,143.163182 28.1947325,143.163182 C28.7650638,143.163182 29.193627,143.33917 29.4804221,143.691146 C29.7606992,144.048825 29.9008377,144.507534 29.9008377,145.067273 L29.9008377,153.116277 L34.9344184,153.116277 L34.9344184,144.464352 C34.9344184,143.668332 34.8399063,142.959492 34.651697,142.337016 C34.4626729,141.714541 34.1766926,141.189836 33.7953854,140.761273 C33.4124487,140.333524 32.9276671,140.005991 32.3418555,139.781932 C31.755229,139.552985 31.0667577,139.437289 30.2756268,139.437289 C29.4747188,139.437289 28.7121045,139.588834 27.9885985,139.889481 C27.2634631,140.185238 26.6344692,140.600765 26.0983578,141.136876 L26.0983578,134.755685 Z M44.5559065,139.437289 C43.4079112,139.437289 42.4008691,139.53669 41.5347804,139.736306 C40.6621736,139.935922 39.9329643,140.217014 39.3455232,140.578767 C38.7540082,140.939705 38.3107793,141.375601 38.0150218,141.88564 C37.7184496,142.39079 37.5709782,142.952159 37.5709782,143.569747 L37.5709782,143.753067 C37.5709782,143.803582 37.5791258,143.862245 37.5937915,143.929055 L42.5662652,143.929055 L42.5662652,143.821507 C42.5662652,143.598263 42.6224835,143.410054 42.7349203,143.261768 C42.8522456,143.115111 43.0021612,142.995342 43.185482,142.903274 C43.3753208,142.812021 43.5814548,142.74847 43.8055135,142.711805 C44.0360903,142.675956 44.2593342,142.658846 44.4793191,142.658846 C44.7490043,142.658846 45.0048386,142.690622 45.2443778,142.757432 C45.4839169,142.825872 45.6900509,142.921198 45.8635945,143.048301 C46.0371382,143.177033 46.1748325,143.33917 46.2766773,143.539601 C46.3834107,143.74329 46.4371848,143.97957 46.4371848,144.249256 L46.4371848,144.908396 C44.9738778,144.908396 43.6710783,144.966243 42.5279715,145.084383 C41.3799762,145.206597 40.4120426,145.442063 39.6209117,145.786706 C38.8305955,146.128904 38.2260444,146.612056 37.8080731,147.233717 C37.3949903,147.859452 37.1880415,148.670952 37.1880415,149.666588 C37.1880415,150.364021 37.3029225,150.953092 37.5326846,151.4338 C37.7616318,151.912878 38.0834616,152.300703 38.4965444,152.596461 C38.9096271,152.892218 39.4066301,153.102426 39.9875532,153.231973 C40.5692911,153.359075 41.2039883,153.422626 41.8932743,153.422626 C42.479086,153.422626 43.0160121,153.378629 43.4999789,153.292265 C43.9790572,153.200197 44.4206565,153.075539 44.8231474,152.916661 C45.2305269,152.759412 45.5987979,152.581795 45.9255162,152.382179 C46.2563083,152.178489 46.5618429,151.967467 46.8429348,151.746667 C47.071882,152.258336 47.4955567,152.665715 48.1123292,152.97125 C48.7250279,153.271081 49.5414163,153.422626 50.5606797,153.422626 C50.9835396,153.422626 51.3591435,153.399813 51.6858618,153.354187 C52.0166539,153.302042 52.2944867,153.245009 52.5193602,153.177384 C52.7792683,153.105685 53.0057713,153.019321 53.2004986,152.916661 L53.2004986,150.002268 L52.2822653,150.002268 C52.0019883,150.002268 51.7982985,149.907756 51.6695666,149.719547 C51.5416495,149.527264 51.478913,149.289354 51.478913,149.008262 L51.478913,143.789732 C51.478913,142.970084 51.2907037,142.281613 50.9126556,141.724318 C50.5403108,141.168652 50.0351602,140.720535 49.3980188,140.378336 C48.755174,140.042655 48.0153729,139.803116 47.1794302,139.658904 C46.3434876,139.512247 45.4684365,139.437289 44.5559065,139.437289 L44.5559065,139.437289 Z M46.4371848,148.427339 C46.4371848,148.701913 46.3687451,148.951229 46.2310508,149.176918 C46.0925418,149.407494 45.909221,149.602222 45.679459,149.765988 C45.4505118,149.928125 45.1857151,150.055228 44.8850691,150.148925 C44.5836083,150.240178 44.2723704,150.285804 43.9513554,150.285804 C43.7370738,150.285804 43.5252364,150.26788 43.3166582,150.23203 C43.1121537,150.191292 42.9288329,150.127741 42.7650664,150.040562 C42.6070031,149.948494 42.4766417,149.818948 42.3756116,149.650292 C42.2786553,149.488155 42.2305845,149.273874 42.2305845,149.008262 C42.2305845,148.763835 42.3088014,148.536517 42.4668646,148.327124 C42.6200393,148.118546 42.867726,147.936854 43.20911,147.785309 C43.5456054,147.63132 43.9790572,147.51155 44.5094652,147.424371 C45.0398733,147.338821 45.6819033,147.29401 46.4371848,147.29401 L46.4371848,148.427339 Z M61.749764,139.437289 C60.6123606,139.437289 59.5792463,139.583946 58.6520506,139.874 C57.7289287,140.164869 56.9386126,140.600765 56.2802874,141.182503 C55.6276655,141.758538 55.1233297,142.485302 54.7656505,143.363613 C54.4136747,144.23459 54.2376868,145.257112 54.2376868,146.42955 C54.2376868,147.598729 54.4136747,148.620437 54.7656505,149.498747 C55.1233297,150.374613 55.6276655,151.103822 56.2802874,151.684745 C56.9386126,152.266483 57.7289287,152.703194 58.6520506,152.994063 C59.5792463,153.279229 60.6123606,153.422626 61.749764,153.422626 C62.7747308,153.422626 63.733702,153.314263 64.625863,153.101611 C65.5188388,152.881626 66.3001926,152.540242 66.9674802,152.076645 C67.6355825,151.61712 68.161102,151.023161 68.5432239,150.292322 C68.9310492,149.564743 69.1249618,148.691321 69.1249618,147.676132 L64.4360242,147.676132 C64.4360242,148.498223 64.2111507,149.092183 63.7614038,149.459639 C63.3132864,149.822207 62.6753302,150.002268 61.8499794,150.002268 C60.9260428,150.002268 60.2652733,149.749693 59.8684857,149.245357 C59.4643653,148.745095 59.2639346,148.054994 59.2639346,147.171796 L59.2639346,145.726413 C59.2639346,145.277481 59.3120053,144.880694 59.4089616,144.532792 C59.505918,144.181631 59.6517598,143.88017 59.8456724,143.630854 C60.0444736,143.384796 60.3019374,143.195772 60.6172491,143.064596 C60.9293018,142.93179 61.3057204,142.86498 61.749764,142.86498 C62.5400802,142.86498 63.1527789,143.046671 63.5854159,143.408424 C64.0204971,143.770992 64.2364083,144.350286 64.2364083,145.144676 L69.1249618,145.144676 C69.1249618,144.119709 68.9310492,143.247917 68.5432239,142.528485 C68.161102,141.804164 67.6355825,141.215093 66.9674802,140.761273 C66.3001926,140.301749 65.5188388,139.967697 64.625863,139.759934 C63.733702,139.544023 62.7747308,139.437289 61.749764,139.437289 Z M78.3325524,139.437289 C77.1845571,139.437289 76.1783298,139.53669 75.3114263,139.736306 C74.4388195,139.935922 73.7096103,140.217014 73.1229838,140.578767 C72.5314689,140.939705 72.0874252,141.375601 71.7916678,141.88564 C71.4950955,142.39079 71.3484389,142.952159 71.3484389,143.569747 L71.3484389,143.753067 C71.3484389,143.803582 71.3557717,143.862245 71.3704374,143.929055 L76.3437259,143.929055 L76.3437259,143.821507 C76.3437259,143.598263 76.3991295,143.410054 76.5115662,143.261768 C76.6288915,143.115111 76.7796219,142.995342 76.9629426,142.903274 C77.1527815,142.812021 77.3589155,142.74847 77.5829742,142.711805 C77.8127362,142.675956 78.0367949,142.658846 78.2559651,142.658846 C78.5256503,142.658846 78.7822993,142.690622 79.0218384,142.757432 C79.2613776,142.825872 79.4675116,142.921198 79.6410552,143.048301 C79.8137841,143.177033 79.9522931,143.33917 80.054138,143.539601 C80.1608714,143.74329 80.2146455,143.97957 80.2146455,144.249256 L80.2146455,144.908396 C78.7513385,144.908396 77.4477242,144.966243 76.3046174,145.084383 C75.1574369,145.206597 74.1886885,145.442063 73.3975576,145.786706 C72.6072414,146.128904 72.0035051,146.612056 71.5855338,147.233717 C71.172451,147.859452 70.9655022,148.670952 70.9655022,149.666588 C70.9655022,150.364021 71.0803832,150.953092 71.3093305,151.4338 C71.5382777,151.912878 71.8601075,152.300703 72.274005,152.596461 C72.6870878,152.892218 73.1840908,153.102426 73.7650139,153.231973 C74.3467517,153.359075 74.9814489,153.422626 75.6699202,153.422626 C76.2565467,153.422626 76.792658,153.378629 77.2774396,153.292265 C77.7565178,153.200197 78.1973024,153.075539 78.6006081,152.916661 C79.0079875,152.759412 79.3754438,152.581795 79.7021621,152.382179 C80.0329543,152.178489 80.3393036,151.967467 80.6203955,151.746667 C80.8493427,152.258336 81.2730173,152.665715 81.8889751,152.97125 C82.5016738,153.271081 83.318877,153.422626 84.3373257,153.422626 C84.7610003,153.422626 85.1366042,153.399813 85.4625077,153.354187 C85.7932999,153.302042 86.0719474,153.245009 86.2968209,153.177384 C86.556729,153.105685 86.7832319,153.019321 86.9771446,152.916661 L86.9771446,150.002268 L86.059726,150.002268 C85.779449,150.002268 85.5749445,149.907756 85.4470273,149.719547 C85.3191102,149.527264 85.2563737,149.289354 85.2563737,149.008262 L85.2563737,143.789732 C85.2563737,142.970084 85.0673497,142.281613 84.6901163,141.724318 C84.3169567,141.168652 83.8118062,140.720535 83.1746647,140.378336 C82.5318199,140.042655 81.7928335,139.803116 80.9560761,139.658904 C80.1209482,139.512247 79.2450824,139.437289 78.3325524,139.437289 L78.3325524,139.437289 Z M80.2146455,148.427339 C80.2146455,148.701913 80.145391,148.951229 80.0085115,149.176918 C79.8700025,149.407494 79.6866817,149.602222 79.4569197,149.765988 C79.2279725,149.928125 78.962361,150.055228 78.661715,150.148925 C78.3602542,150.240178 78.0490163,150.285804 77.7280013,150.285804 C77.5145344,150.285804 77.3018824,150.26788 77.0933041,150.23203 C76.8887996,150.191292 76.7062936,150.127741 76.5417123,150.040562 C76.3844638,149.948494 76.2532876,149.818948 76.1522575,149.650292 C76.0553012,149.488155 76.0072304,149.273874 76.0072304,149.008262 C76.0072304,148.763835 76.0854473,148.536517 76.2443253,148.327124 C76.3966852,148.118546 76.6451867,147.936854 76.9865707,147.785309 C77.3222513,147.63132 77.7565178,147.51155 78.2861111,147.424371 C78.8165192,147.338821 79.4585492,147.29401 80.2146455,147.29401 L80.2146455,148.427339 Z M120.740754,135.696731 L115.162915,135.696731 L113.297117,145.573239 L113.182236,145.573239 L111.085861,135.696731 L105.569943,135.696731 L103.588449,145.573239 L103.489864,145.573239 L101.484742,135.696731 L95.6641042,135.696731 L99.7484907,153.116277 L105.899106,153.116277 L108.155988,142.505671 L108.247241,142.505671 L110.504123,153.116277 L116.655553,153.116277 L120.740754,135.696731 Z M128.635768,139.437289 C127.49918,139.437289 126.46688,139.583946 125.538055,139.874 C124.615748,140.164869 123.824617,140.600765 123.165477,141.182503 C122.51367,141.758538 122.008519,142.485302 121.651655,143.363613 C121.299679,144.23459 121.124506,145.257112 121.124506,146.42955 C121.124506,147.633764 121.305382,148.673396 121.667135,149.551707 C122.029703,150.429202 122.54626,151.155967 123.220066,151.732816 C123.89876,152.308036 124.722481,152.73334 125.690415,153.010358 C126.659978,153.284932 127.746866,153.422626 128.94945,153.422626 C130.153664,153.422626 131.207147,153.306116 132.1099,153.07065 C133.011838,152.831926 133.764676,152.487283 134.366783,152.037536 C134.973778,151.593492 135.427599,151.052493 135.72743,150.415351 C136.028891,149.779024 136.179621,149.060407 136.179621,148.258684 L131.299215,148.258684 C131.299215,148.529184 131.255218,148.78013 131.168854,149.01478 C131.081675,149.250246 130.942351,149.457195 130.747623,149.635627 C130.554526,149.814059 130.299506,149.951753 129.982565,150.049524 C129.672956,150.151369 129.29002,150.201069 128.835384,150.201069 C127.881302,150.201069 127.195275,149.94605 126.777303,149.436826 C126.360147,148.93249 126.149939,148.217131 126.149939,147.29401 L136.179621,147.29401 L136.179621,146.42955 C136.179621,145.227781 136.014225,144.185704 135.681803,143.309838 C135.345308,142.42664 134.855638,141.699875 134.212793,141.127914 C133.570763,140.557583 132.782891,140.133908 131.849178,139.85852 C130.91139,139.578243 129.840797,139.437289 128.635768,139.437289 L128.635768,139.437289 Z M128.835384,142.658846 C129.554816,142.658846 130.110482,142.857647 130.503196,143.25525 C130.899983,143.654482 131.099599,144.203629 131.099599,144.908396 L126.1809,144.908396 C126.268079,144.213406 126.519839,143.665888 126.938625,143.261768 C127.356597,142.859277 127.989664,142.658846 128.835384,142.658846 Z M143.835096,134.755685 L138.786035,134.755685 L138.786035,153.116277 L143.835096,153.116277 L143.835096,134.755685 Z M153.956846,139.437289 C152.819443,139.437289 151.787143,139.583946 150.858318,139.874 C149.936011,140.164869 149.14488,140.600765 148.486555,141.182503 C147.833933,141.758538 147.329597,142.485302 146.971918,143.363613 C146.619942,144.23459 146.443954,145.257112 146.443954,146.42955 C146.443954,147.598729 146.619942,148.620437 146.971918,149.498747 C147.329597,150.374613 147.833933,151.103822 148.486555,151.684745 C149.14488,152.266483 149.936011,152.703194 150.858318,152.994063 C151.787143,153.279229 152.819443,153.422626 153.956846,153.422626 C154.981813,153.422626 155.941599,153.314263 156.832945,153.101611 C157.725921,152.881626 158.50646,152.540242 159.174562,152.076645 C159.843479,151.61712 160.368184,151.023161 160.750306,150.292322 C161.138131,149.564743 161.331229,148.691321 161.331229,147.676132 L156.642292,147.676132 C156.642292,148.498223 156.418233,149.092183 155.969301,149.459639 C155.520369,149.822207 154.882412,150.002268 154.056247,150.002268 C153.13394,150.002268 152.472355,149.749693 152.074753,149.245357 C151.672262,148.745095 151.471017,148.054994 151.471017,147.171796 L151.471017,145.726413 C151.471017,145.277481 151.519087,144.880694 151.616044,144.532792 C151.713,144.181631 151.858842,143.88017 152.05194,143.630854 C152.250741,143.384796 152.50902,143.195772 152.824331,143.064596 C153.136384,142.93179 153.513617,142.86498 153.956846,142.86498 C154.747162,142.86498 155.359861,143.046671 155.793313,143.408424 C156.226764,143.770992 156.44349,144.350286 156.44349,145.144676 L161.331229,145.144676 C161.331229,144.119709 161.138131,143.247917 160.750306,142.528485 C160.368184,141.804164 159.843479,141.215093 159.174562,140.761273 C158.50646,140.301749 157.725921,139.967697 156.832945,139.759934 C155.941599,139.544023 154.981813,139.437289 153.956846,139.437289 Z M170.845169,139.437289 C169.70858,139.437289 168.676281,139.583946 167.747456,139.874 C166.825149,140.164869 166.033203,140.600765 165.375692,141.182503 C164.723071,141.758538 164.21792,142.485302 163.861056,143.363613 C163.50908,144.23459 163.333092,145.257112 163.333092,146.42955 C163.333092,147.598729 163.50908,148.620437 163.861056,149.498747 C164.21792,150.374613 164.723071,151.103822 165.375692,151.684745 C166.033203,152.266483 166.825149,152.703194 167.747456,152.994063 C168.676281,153.279229 169.70858,153.422626 170.845169,153.422626 C171.983387,153.422626 173.017316,153.279229 173.951845,152.994063 C174.884744,152.703194 175.677504,152.266483 176.330126,151.684745 C176.988451,151.103822 177.496046,150.374613 177.853725,149.498747 C178.21059,148.620437 178.389022,147.598729 178.389022,146.42955 C178.389022,145.257112 178.21059,144.23459 177.853725,143.363613 C177.496046,142.485302 176.988451,141.758538 176.330126,141.182503 C175.677504,140.600765 174.884744,140.164869 173.951845,139.874 C173.017316,139.583946 171.983387,139.437289 170.845169,139.437289 L170.845169,139.437289 Z M170.845169,142.86498 C171.294101,142.86498 171.674594,142.93179 171.985832,143.064596 C172.296255,143.195772 172.556978,143.384796 172.765556,143.630854 C172.97006,143.88017 173.120791,144.181631 173.216932,144.532792 C173.308185,144.880694 173.354627,145.277481 173.354627,145.726413 L173.354627,147.171796 C173.354627,148.054994 173.159084,148.745095 172.765556,149.245357 C172.367954,149.749693 171.728368,150.002268 170.845169,150.002268 C170.401125,150.002268 170.025522,149.938717 169.713469,149.811615 C169.396528,149.684512 169.139879,149.498747 168.940263,149.25269 C168.747165,149.008262 168.602138,148.712505 168.504367,148.365418 C168.40741,148.014257 168.358525,147.615839 168.358525,147.171796 L168.358525,145.726413 C168.358525,145.277481 168.40741,144.880694 168.504367,144.532792 C168.602138,144.181631 168.747165,143.88017 168.940263,143.630854 C169.139879,143.384796 169.396528,143.195772 169.713469,143.064596 C170.025522,142.93179 170.401125,142.86498 170.845169,142.86498 Z M198.582007,139.437289 C198.128186,139.437289 197.682513,139.493508 197.242543,139.605944 C196.805018,139.718381 196.389491,139.874 195.995962,140.072801 C195.59836,140.270788 195.228459,140.511956 194.887075,140.792233 C194.545691,141.077399 194.24749,141.393526 193.991655,141.741428 C193.660863,141.006515 193.161416,140.439443 192.492499,140.042655 C191.818693,139.638535 190.96727,139.437289 189.937415,139.437289 C189.473002,139.437289 189.016737,139.491063 188.56862,139.598612 C188.119688,139.705345 187.693569,139.85852 187.291078,140.056506 C186.886958,140.256122 186.515427,140.49892 186.173229,140.784901 C185.832659,141.070066 185.534458,141.389452 185.277809,141.741428 L184.956794,139.752601 L180.825966,139.752601 L180.825966,153.116277 L185.859547,153.116277 L185.859547,145.266889 C185.859547,144.986612 185.905173,144.718557 185.997241,144.464352 C186.094197,144.209332 186.230262,143.985274 186.402991,143.789732 C186.576534,143.598263 186.785113,143.444274 187.030355,143.331837 C187.280486,143.2194 187.555875,143.163182 187.856521,143.163182 C188.376337,143.163182 188.774754,143.33917 189.049328,143.691146 C189.320642,144.048825 189.455078,144.507534 189.455078,145.067273 L189.455078,153.116277 L194.497621,153.116277 L194.497621,145.266889 C194.497621,144.986612 194.545691,144.718557 194.642648,144.464352 C194.734715,144.209332 194.866706,143.985274 195.039435,143.789732 C195.212979,143.598263 195.425631,143.444274 195.674133,143.331837 C195.919375,143.2194 196.194763,143.163182 196.500298,143.163182 C197.020929,143.163182 197.416087,143.33917 197.686587,143.691146 C197.96279,144.048825 198.09967,144.507534 198.09967,145.067273 L198.09967,153.116277 L203.125918,153.116277 L203.125918,144.464352 C203.125918,143.668332 203.034665,142.959492 202.850529,142.337016 C202.667208,141.714541 202.386931,141.189836 202.008883,140.761273 C201.638168,140.333524 201.163163,140.005991 200.586314,139.781932 C200.015983,139.552985 199.346251,139.437289 198.582007,139.437289 Z M213.05457,139.437289 C211.917166,139.437289 210.884867,139.583946 209.956042,139.874 C209.033735,140.164869 208.241789,140.600765 207.584278,141.182503 C206.932471,141.758538 206.426506,142.485302 206.070456,143.363613 C205.718481,144.23459 205.542493,145.257112 205.542493,146.42955 C205.542493,147.633764 205.723369,148.673396 206.085122,149.551707 C206.44769,150.429202 206.965062,151.155967 207.638867,151.732816 C208.316747,152.308036 209.141283,152.73334 210.109216,153.010358 C211.077965,153.284932 212.165668,153.422626 213.368252,153.422626 C214.572466,153.422626 215.62432,153.306116 216.527887,153.07065 C217.429825,152.831926 218.183477,152.487283 218.784769,152.037536 C219.391765,151.593492 219.8464,151.052493 220.146232,150.415351 C220.447692,149.779024 220.597608,149.060407 220.597608,148.258684 L215.717202,148.258684 C215.717202,148.529184 215.67402,148.78013 215.586841,149.01478 C215.499661,149.250246 215.360338,149.457195 215.166425,149.635627 C214.971698,149.814059 214.718308,149.951753 214.400552,150.049524 C214.090943,150.151369 213.708007,150.201069 213.253371,150.201069 C212.300103,150.201069 211.614076,149.94605 211.19529,149.436826 C210.778133,148.93249 210.567926,148.217131 210.567926,147.29401 L220.597608,147.29401 L220.597608,146.42955 C220.597608,145.227781 220.432212,144.185704 220.09979,143.309838 C219.76411,142.42664 219.273625,141.699875 218.631595,141.127914 C217.989565,140.557583 217.200878,140.133908 216.267164,139.85852 C215.329377,139.578243 214.258784,139.437289 213.05457,139.437289 L213.05457,139.437289 Z M213.253371,142.658846 C213.972803,142.658846 214.528469,142.857647 214.921183,143.25525 C215.318785,143.654482 215.518401,144.203629 215.518401,144.908396 L210.598886,144.908396 C210.686066,144.213406 210.938641,143.665888 211.356612,143.261768 C211.773769,142.859277 212.407651,142.658846 213.253371,142.658846 Z M229.392116,139.437289 C228.510547,139.437289 227.663197,139.512247 226.852512,139.658904 C226.046716,139.803116 225.335431,140.048359 224.717844,140.395446 C224.096183,140.740089 223.600809,141.205316 223.233353,141.787054 C222.861823,142.368792 222.675243,143.100445 222.675243,143.982015 C222.675243,144.641155 222.797457,145.192746 223.0427,145.642493 C223.29283,146.09224 223.619549,146.4654 224.02204,146.766861 C224.425345,147.068321 224.886499,147.307861 225.406315,147.486293 C225.926946,147.664725 226.458169,147.809752 226.998354,147.922189 C227.538539,148.037885 228.066503,148.134026 228.580616,148.204095 C229.101247,148.281497 229.563215,148.365418 229.966521,148.4583 C230.37553,148.554442 230.700619,148.67747 230.945861,148.824942 C231.195177,148.972413 231.32065,149.172029 231.32065,149.421345 C231.32065,149.660884 231.244063,149.84339 231.090888,149.972937 C230.937713,150.104113 230.751134,150.201069 230.531964,150.262176 C230.313608,150.330616 230.084661,150.369725 229.844307,150.385205 C229.599065,150.4015 229.388857,150.408018 229.216128,150.408018 C229.027919,150.408018 228.807119,150.387649 228.55047,150.346097 C228.301154,150.306988 228.064059,150.229586 227.839185,150.117149 C227.609423,150.004713 227.416325,149.849908 227.258262,149.650292 C227.09531,149.446603 227.010575,149.183436 227.004872,148.863235 L227.004872,148.763835 L222.3306,148.763835 C222.3306,149.594074 222.53266,150.306988 222.935151,150.897688 C223.338457,151.484315 223.865606,151.967467 224.519043,152.343885 C225.166776,152.720304 225.900874,152.994063 226.721336,153.161903 C227.543428,153.336262 228.374482,153.422626 229.216128,153.422626 C230.129473,153.422626 231.004524,153.347668 231.839652,153.200197 C232.677224,153.052726 233.413766,152.796891 234.050907,152.435953 C234.683975,152.073385 235.189126,151.58616 235.566359,150.974276 C235.938704,150.36728 236.125284,149.604666 236.125284,148.687247 C236.125284,148.003665 236.002255,147.433333 235.757012,146.973809 C235.507696,146.509397 235.181793,146.124016 234.777672,145.818481 C234.375996,145.51702 233.914028,145.277481 233.393397,145.098234 C232.873581,144.920617 232.343173,144.779664 231.802173,144.677819 C231.266876,144.577603 230.738912,144.492054 230.218281,144.425243 C229.698465,144.358433 229.236497,144.286734 228.834006,144.203629 C228.431515,144.122153 228.104797,144.012975 227.854666,143.875281 C227.609423,143.736772 227.487209,143.547748 227.487209,143.309838 C227.487209,143.094742 227.562167,142.93179 227.708824,142.819354 C227.857925,142.701214 228.030654,142.618108 228.22864,142.566778 C228.433959,142.51056 228.637649,142.47797 228.841339,142.467378 C229.050732,142.46086 229.208795,142.460045 229.316343,142.460045 C229.489887,142.460045 229.678096,142.475525 229.881786,142.505671 C230.091179,142.542336 230.282647,142.605072 230.455376,142.696325 C230.634623,142.794096 230.783724,142.926087 230.906753,143.094742 C231.03467,143.261768 231.10148,143.479308 231.105554,143.745735 L235.795306,143.745735 C235.795306,142.955418 235.609541,142.283242 235.237196,141.734095 C234.864851,141.186577 234.37844,140.746607 233.775519,140.409297 C233.174227,140.067098 232.490644,139.820226 231.724771,139.667051 C230.959712,139.514691 230.183247,139.437289 229.392116,139.437289 Z M263.837679,141.036661 C263.837679,140.327006 263.713021,139.651571 263.462075,139.009541 C263.218462,138.366696 262.849376,137.800439 262.353188,137.312398 C261.858629,136.821098 261.245116,136.430014 260.510203,136.132627 C259.776106,135.841758 258.925497,135.696731 257.962452,135.696731 L247.30622,135.696731 L247.30622,153.116277 L252.890578,153.116277 L252.890578,146.759528 L254.970657,146.759528 L258.061853,153.116277 L264.342829,153.116277 L260.47191,145.818481 C261.032464,145.614791 261.522134,145.346736 261.94092,145.014314 C262.362965,144.677819 262.714941,144.300585 262.996033,143.883429 C263.277125,143.458939 263.485703,143.009192 263.624212,142.528485 C263.766795,142.043703 263.837679,141.547515 263.837679,141.036661 L263.837679,141.036661 Z M258.131107,141.273756 C258.131107,141.503518 258.090369,141.716985 258.008893,141.916601 C257.927418,142.116217 257.814981,142.285687 257.671583,142.429899 C257.528186,142.572482 257.360345,142.683289 257.167247,142.766394 C256.978223,142.847055 256.776163,142.888608 256.562696,142.888608 L252.890578,142.888608 L252.890578,139.675199 L256.562696,139.675199 C256.776163,139.675199 256.978223,139.715122 257.167247,139.796598 C257.360345,139.874 257.528186,139.981548 257.671583,140.118428 C257.814981,140.261825 257.927418,140.43211 258.008893,140.631726 C258.090369,140.824824 258.131107,141.039105 258.131107,141.273756 Z M272.918982,139.437289 C271.781578,139.437289 270.749279,139.583946 269.820454,139.874 C268.898146,140.164869 268.107016,140.600765 267.44869,141.182503 C266.796068,141.758538 266.291733,142.485302 265.934053,143.363613 C265.582078,144.23459 265.40609,145.257112 265.40609,146.42955 C265.40609,147.633764 265.587781,148.673396 265.949534,149.551707 C266.312102,150.429202 266.828659,151.155967 267.502464,151.732816 C268.181159,152.308036 269.00488,152.73334 269.972813,153.010358 C270.943191,153.284932 272.02845,153.422626 273.231849,153.422626 C274.436063,153.422626 275.489546,153.306116 276.391484,153.07065 C277.294237,152.831926 278.047889,152.487283 278.649181,152.037536 C279.256177,151.593492 279.709183,151.052493 280.010643,150.415351 C280.312104,149.779024 280.46202,149.060407 280.46202,148.258684 L275.580799,148.258684 C275.580799,148.529184 275.538432,148.78013 275.451252,149.01478 C275.364888,149.250246 275.223935,149.457195 275.030022,149.635627 C274.836924,149.814059 274.58109,149.951753 274.265778,150.049524 C273.95454,150.151369 273.572418,150.201069 273.116968,150.201069 C272.164515,150.201069 271.478488,149.94605 271.060517,149.436826 C270.642545,148.93249 270.432338,148.217131 270.432338,147.29401 L280.46202,147.29401 L280.46202,146.42955 C280.46202,145.227781 280.296624,144.185704 279.965017,143.309838 C279.627707,142.42664 279.138037,141.699875 278.495192,141.127914 C277.853162,140.557583 277.064475,140.133908 276.131576,139.85852 C275.193789,139.578243 274.123195,139.437289 272.918982,139.437289 L272.918982,139.437289 Z M273.116968,142.658846 C273.8364,142.658846 274.392881,142.857647 274.785594,143.25525 C275.183197,143.654482 275.381183,144.203629 275.381183,144.908396 L270.463298,144.908396 C270.550478,144.213406 270.802238,143.665888 271.220209,143.261768 C271.638995,142.859277 272.272063,142.658846 273.116968,142.658846 Z M288.339109,134.457483 C287.619677,134.457483 286.958908,134.53407 286.35843,134.68643 C285.755509,134.840419 285.240581,135.097883 284.811203,135.459636 C284.384269,135.820574 284.049403,136.306171 283.809864,136.913166 C283.575214,137.520162 283.457888,138.279517 283.457888,139.192047 L283.457888,139.752601 L281.57661,139.752601 L281.57661,143.163182 L283.457888,143.163182 L283.457888,153.116277 L288.484136,153.116277 L288.484136,143.163182 L291.070181,143.163182 L291.070181,139.752601 L288.484136,139.752601 L288.484136,139.21649 C288.484136,138.986728 288.507764,138.784667 288.554205,138.611939 C288.599017,138.43758 288.676419,138.299071 288.782338,138.190708 C288.889886,138.08316 289.035728,138.004943 289.218234,137.954428 C289.396666,137.89821 289.626428,137.868878 289.90752,137.868878 L291.070181,137.868878 L291.070181,134.900712 C290.897452,134.844493 290.692948,134.78909 290.458297,134.732871 C290.223647,134.671764 289.980848,134.622879 289.731532,134.587844 C289.476513,134.551995 289.226382,134.521034 288.981139,134.496591 C288.731823,134.471334 288.516727,134.457483 288.339109,134.457483 Z M306.576673,139.752601 L301.543092,139.752601 L301.543092,147.600359 C301.543092,147.891228 301.495021,148.160913 301.398065,148.411044 C301.29622,148.66036 301.152823,148.884419 300.969502,149.076702 C300.781293,149.270615 300.555604,149.422975 300.296511,149.535411 C300.041492,149.649478 299.755511,149.705696 299.440199,149.705696 C298.873127,149.705696 298.447823,149.527264 298.162657,149.16877 C297.876677,148.817609 297.73328,148.360529 297.73328,147.79916 L297.73328,139.752601 L292.699699,139.752601 L292.699699,148.403711 C292.699699,149.193213 292.79747,149.900423 292.990568,150.522084 C293.179592,151.145375 293.463943,151.67008 293.847694,152.097828 C294.229816,152.53291 294.713783,152.861257 295.301224,153.085316 C295.882962,153.31019 296.570619,153.422626 297.366638,153.422626 C297.835124,153.422626 298.297093,153.368852 298.750099,153.261304 C299.210437,153.154571 299.646333,153.001396 300.059416,152.802595 C300.472499,152.598905 300.852177,152.354477 301.198449,152.068497 C301.55124,151.777628 301.859219,151.45091 302.124015,151.089157 L302.445845,153.116277 L306.576673,153.116277 L306.576673,139.752601 Z M320.535937,137.242329 C320.52616,137.461499 320.446314,137.701853 320.298843,137.961761 C320.176629,138.176043 319.979457,138.421285 319.709772,138.695859 C319.444161,138.976951 319.05878,139.275152 318.554444,139.591279 C318.274167,139.539134 317.965373,139.500841 317.628878,139.476398 C317.292382,139.45114 316.865449,139.437289 316.351336,139.437289 C315.411919,139.437289 314.524646,139.508988 313.688704,139.651571 C312.852761,139.789265 312.121922,140.027175 311.500261,140.364485 C310.8786,140.695277 310.384041,141.138506 310.016585,141.693357 C309.649944,142.254726 309.465808,142.948086 309.465808,143.767733 C309.465808,144.089563 309.522026,144.400801 309.633648,144.701447 C309.746085,145.001278 309.896815,145.288073 310.08584,145.558573 C310.274049,145.82337 310.500552,146.072686 310.766978,146.307337 C311.031775,146.541987 311.314496,146.759528 311.615142,146.957514 C311.263166,147.050397 310.929115,147.184832 310.612989,147.364079 C310.302565,147.5474 310.032065,147.767385 309.802303,148.021589 C309.572541,148.275794 309.39085,148.556886 309.259674,148.863235 C309.126868,149.16877 309.060058,149.489785 309.060058,149.82628 C309.060058,150.310247 309.177383,150.755106 309.412034,151.159226 C309.647499,151.556828 309.96607,151.894139 310.368561,152.17523 C310.087469,152.298259 309.820228,152.458766 309.565209,152.656753 C309.311004,152.856369 309.083686,153.083687 308.88407,153.337891 C308.685269,153.593726 308.52965,153.875632 308.417213,154.187685 C308.299888,154.493219 308.241225,154.819938 308.241225,155.167025 C308.241225,155.630623 308.331664,156.059186 308.510096,156.4519 C308.688528,156.850317 308.928067,157.193331 309.228713,157.485014 C309.535063,157.780772 309.894371,158.012978 310.307454,158.180004 C310.720537,158.348659 311.156433,158.433394 311.615142,158.433394 L319.05878,158.433394 C319.802654,158.433394 320.514754,158.334808 321.193448,158.135192 C321.872142,157.935576 322.46936,157.643077 322.984288,157.256067 C323.504104,156.866612 323.914743,156.391608 324.214574,155.823721 C324.520923,155.252575 324.674913,154.591805 324.674913,153.843042 C324.674913,153.225455 324.585289,152.656753 324.406857,152.136937 C324.233313,151.612232 323.961184,151.160041 323.588024,150.783622 C323.21568,150.4015 322.747193,150.103298 322.180121,149.888202 C321.619567,149.674735 320.951465,149.566372 320.176629,149.566372 L315.60909,149.566372 C315.287261,149.566372 315.025723,149.545189 314.820404,149.50608 C314.616714,149.464527 314.453762,149.408309 314.331548,149.337425 C314.214223,149.270615 314.132747,149.189139 314.087121,149.092183 C314.040679,148.996041 314.017866,148.892567 314.017866,148.785833 C314.017866,148.571552 314.137636,148.396378 314.377175,148.258684 C314.616714,148.115287 315.027352,148.045217 315.60909,148.045217 L317.544143,148.045217 C318.293721,148.045217 319.008265,147.960482 319.686144,147.791827 C320.364838,147.623172 320.961242,147.364079 321.476984,147.012103 C321.991912,146.665016 322.40255,146.220157 322.708085,145.680787 C323.014434,145.140602 323.166794,144.494498 323.166794,143.745735 C323.166794,143.184366 323.029915,142.657217 322.754526,142.160214 C322.479138,141.66647 322.094571,141.233018 321.598383,140.860673 C322.073388,140.739274 322.501951,140.582026 322.884073,140.395446 C323.261306,140.205607 323.58558,139.967697 323.85608,139.683347 C324.121692,139.398181 324.325381,139.055167 324.467964,138.657565 C324.605658,138.254259 324.674913,137.783329 324.674913,137.242329 L320.535937,137.242329 L320.535937,137.242329 Z M318.293721,153.116277 C318.666881,153.116277 318.984637,153.22301 319.251063,153.436477 C319.510156,153.653203 319.640517,153.957923 319.640517,154.35634 C319.640517,154.749054 319.510156,155.058662 319.251063,155.289239 C318.984637,155.512483 318.666881,155.626549 318.293721,155.626549 L314.354362,155.626549 C313.982017,155.626549 313.66752,155.508409 313.413315,155.272944 C313.15911,155.038293 313.031193,154.722167 313.031193,154.324564 C313.031193,153.93348 313.15911,153.632019 313.413315,153.422626 C313.66752,153.218122 313.982017,153.116277 314.354362,153.116277 L318.293721,153.116277 L318.293721,153.116277 Z M316.304894,142.077923 C316.895595,142.077923 317.368155,142.211543 317.720131,142.482043 C318.072107,142.752543 318.248094,143.173774 318.248094,143.745735 C318.248094,144.311177 318.072107,144.732408 317.720131,145.006981 C317.368155,145.277481 316.895595,145.411917 316.304894,145.411917 C315.702788,145.411917 315.234301,145.277481 314.897806,145.006981 C314.566199,144.732408 314.399988,144.311177 314.399988,143.745735 C314.399988,143.464643 314.448059,143.2194 314.54583,143.011637 C314.647675,142.801429 314.782925,142.626256 314.95158,142.482043 C315.11942,142.345164 315.318221,142.243319 315.547983,142.176509 C315.782634,142.109699 316.034394,142.077923 316.304894,142.077923 Z M333.43846,139.437289 C332.301056,139.437289 331.267942,139.583946 330.339932,139.874 C329.41681,140.164869 328.627308,140.600765 327.968983,141.182503 C327.316361,141.758538 326.811211,142.485302 326.454346,143.363613 C326.10237,144.23459 325.926383,145.257112 325.926383,146.42955 C325.926383,147.633764 326.107259,148.673396 326.469012,149.551707 C326.830765,150.429202 327.349766,151.155967 328.022757,151.732816 C328.699822,152.308036 329.523543,152.73334 330.493921,153.010358 C331.462669,153.284932 332.548743,153.422626 333.752142,153.422626 C334.955541,153.422626 336.009024,153.306116 336.911777,153.07065 C337.815345,152.831926 338.566552,152.487283 339.167845,152.037536 C339.775655,151.593492 340.229475,151.052493 340.530121,150.415351 C340.830768,149.779024 340.981498,149.060407 340.981498,148.258684 L336.101092,148.258684 C336.101092,148.529184 336.057095,148.78013 335.970731,149.01478 C335.884366,149.250246 335.743413,149.457195 335.550315,149.635627 C335.356402,149.814059 335.100568,149.951753 334.785256,150.049524 C334.473204,150.151369 334.091082,150.201069 333.637261,150.201069 C332.683993,150.201069 331.998781,149.94605 331.579995,149.436826 C331.160394,148.93249 330.95263,148.217131 330.95263,147.29401 L340.981498,147.29401 L340.981498,146.42955 C340.981498,145.227781 340.815287,144.185704 340.484495,143.309838 C340.147185,142.42664 339.658329,141.699875 339.015485,141.127914 C338.373455,140.557583 337.585583,140.133908 336.652684,139.85852 C335.713267,139.578243 334.641859,139.437289 333.43846,139.437289 L333.43846,139.437289 Z M333.637261,142.658846 C334.356693,142.658846 334.912359,142.857647 335.305072,143.25525 C335.70349,143.654482 335.901476,144.203629 335.901476,144.908396 L330.982776,144.908396 C331.069141,144.213406 331.321716,143.665888 331.740502,143.261768 C332.158474,142.859277 332.790726,142.658846 333.637261,142.658846 Z M350.326783,139.437289 C349.189379,139.437289 348.156265,139.583946 347.229069,139.874 C346.305947,140.164869 345.514817,140.600765 344.856491,141.182503 C344.204684,141.758538 343.699534,142.485302 343.341855,143.363613 C342.990693,144.23459 342.814705,145.257112 342.814705,146.42955 C342.814705,147.633764 342.994767,148.673396 343.35815,149.551707 C343.719903,150.429202 344.237275,151.155967 344.91108,151.732816 C345.589774,152.308036 346.412681,152.73334 347.381429,153.010358 C348.350992,153.284932 349.437881,153.422626 350.640465,153.422626 C351.843864,153.422626 352.897347,153.306116 353.800915,153.07065 C354.702853,152.831926 355.454875,152.487283 356.056982,152.037536 C356.663163,151.593492 357.118613,151.052493 357.418444,150.415351 C357.71909,149.779024 357.870636,149.060407 357.870636,148.258684 L352.989415,148.258684 C352.989415,148.529184 352.945418,148.78013 352.859053,149.01478 C352.772689,149.250246 352.631736,149.457195 352.438638,149.635627 C352.244725,149.814059 351.989706,149.951753 351.673579,150.049524 C351.363156,150.151369 350.979405,150.201069 350.525584,150.201069 C349.571501,150.201069 348.886289,149.94605 348.467503,149.436826 C348.050346,148.93249 347.840953,148.217131 347.840953,147.29401 L357.870636,147.29401 L357.870636,146.42955 C357.870636,145.227781 357.70361,144.185704 357.372818,143.309838 C357.036322,142.42664 356.545838,141.699875 355.903808,141.127914 C355.260963,140.557583 354.473091,140.133908 353.540192,139.85852 C352.600775,139.578243 351.530182,139.437289 350.326783,139.437289 L350.326783,139.437289 Z M350.525584,142.658846 C351.245831,142.658846 351.800682,142.857647 352.193395,143.25525 C352.590998,143.654482 352.790614,144.203629 352.790614,144.908396 L347.871914,144.908396 C347.957464,144.213406 348.210039,143.665888 348.628825,143.261768 C349.047611,142.859277 349.679049,142.658846 350.525584,142.658846 Z M366.665143,139.437289 C365.783574,139.437289 364.93541,139.512247 364.124725,139.658904 C363.319743,139.803116 362.607644,140.048359 361.990872,140.395446 C361.368396,140.740089 360.873022,141.205316 360.506381,141.787054 C360.134036,142.368792 359.948271,143.100445 359.948271,143.982015 C359.948271,144.641155 360.070485,145.192746 360.315727,145.642493 C360.565043,146.09224 360.891762,146.4654 361.295067,146.766861 C361.697558,147.068321 362.159527,147.307861 362.679343,147.486293 C363.199159,147.664725 363.729567,147.809752 364.270567,147.922189 C364.810752,148.037885 365.338716,148.134026 365.853644,148.204095 C366.374275,148.281497 366.834613,148.365418 367.237919,148.4583 C367.646113,148.554442 367.973646,148.67747 368.218074,148.824942 C368.46739,148.972413 368.592863,149.172029 368.592863,149.421345 C368.592863,149.660884 368.515461,149.84339 368.363101,149.972937 C368.210741,150.104113 368.024161,150.201069 367.804991,150.262176 C367.585006,150.330616 367.355244,150.369725 367.11652,150.385205 C366.872092,150.4015 366.662699,150.408018 366.489156,150.408018 C366.300131,150.408018 366.077702,150.387649 365.823497,150.346097 C365.573366,150.306988 365.336272,150.229586 365.111398,150.117149 C364.881636,150.004713 364.688538,149.849908 364.530475,149.650292 C364.367523,149.446603 364.282788,149.183436 364.277085,148.863235 L364.277085,148.763835 L359.603628,148.763835 C359.603628,149.594074 359.804059,150.306988 360.208179,150.897688 C360.611485,151.484315 361.138634,151.967467 361.791256,152.343885 C362.439804,152.720304 363.173901,152.994063 363.995178,153.161903 C364.815641,153.336262 365.64751,153.422626 366.489156,153.422626 C367.401686,153.422626 368.276737,153.347668 369.112679,153.200197 C369.948622,153.052726 370.685979,152.796891 371.323935,152.435953 C371.956188,152.073385 372.461338,151.58616 372.838572,150.974276 C373.210917,150.36728 373.397496,149.604666 373.397496,148.687247 C373.397496,148.003665 373.275283,147.433333 373.029225,146.973809 C372.779909,146.509397 372.454006,146.124016 372.0507,145.818481 C371.648209,145.51702 371.186241,145.277481 370.666425,145.098234 C370.144979,144.920617 369.615386,144.779664 369.074386,144.677819 C368.539089,144.577603 368.011125,144.492054 367.490494,144.425243 C366.970678,144.358433 366.509524,144.286734 366.106219,144.203629 C365.702913,144.122153 365.377824,144.012975 365.127693,143.875281 C364.881636,143.736772 364.759422,143.547748 364.759422,143.309838 C364.759422,143.094742 364.83438,142.93179 364.981852,142.819354 C365.129323,142.701214 365.303681,142.618108 365.501668,142.566778 C365.706172,142.51056 365.909047,142.47797 366.114366,142.467378 C366.322945,142.46086 366.481008,142.460045 366.588556,142.460045 C366.7621,142.460045 366.949494,142.475525 367.153999,142.505671 C367.362577,142.542336 367.55486,142.605072 367.727589,142.696325 C367.906021,142.794096 368.056752,142.926087 368.17978,143.094742 C368.306883,143.261768 368.372878,143.479308 368.378581,143.745735 L373.068334,143.745735 C373.068334,142.955418 372.881754,142.283242 372.510224,141.734095 C372.13625,141.186577 371.650653,140.746607 371.047732,140.409297 C370.445625,140.067098 369.762857,139.820226 368.997798,139.667051 C368.23274,139.514691 367.454645,139.437289 366.665143,139.437289 Z" id="Shape"></path>
                </g>
            </g>
        </g>
    </g>
</svg>