<?xml version="1.0" encoding="UTF-8"?>
<svg width="1795px" height="389px" viewBox="0 0 1795 389" version="1.1" xmlns="http://www.w3.org/2000/svg" xmlns:xlink="http://www.w3.org/1999/xlink">
    <!-- Generator: Sketch 43.1 (39012) - http://www.bohemiancoding.com/sketch -->
    <title>Group 2</title>
    <desc>Created with Sketch.</desc>
    <defs></defs>
    <g id="Page-1" stroke="none" stroke-width="1" fill="none" fill-rule="evenodd">
        <g id="Group-2">
            <g id="CUSDbottom">
                <path d="M257.9,59.1 L34.5,59.1" id="Shape"></path>
                <rect id="Rectangle-path" fill="#80C26C" fill-rule="nonzero" x="5.6" y="5.8" width="188.5" height="188.5"></rect>
                <rect id="Rectangle-path" fill="#83C2BA" fill-rule="nonzero" x="194.2" y="5.8" width="188.5" height="188.5"></rect>
                <rect id="Rectangle-path" fill="#3F9A8E" fill-rule="nonzero" x="5.6" y="194.4" width="188.5" height="188.5"></rect>
                <rect id="Rectangle-path" fill="#3FAA6D" fill-rule="nonzero" x="194.2" y="194.4" width="188.5" height="188.5"></rect>
                <path d="M320.5,122.4 C318.9,126.4 316.6,129.7 313.5,132.6 C310.5,135.4 306.8,137.6 302.6,139.2 C298.3,140.8 293.6,141.6 288.4,141.6 C283.1,141.6 278.4,140.8 274.2,139.2 C270,137.6 266.4,135.4 263.5,132.6 C260.6,129.8 258.3,126.4 256.7,122.4 C255.1,118.4 254.3,114.1 254.3,109.2 L254.3,59.3 L273.5,59.3 L273.5,107.6 C273.5,109.8 273.8,111.9 274.3,113.8 C274.9,115.8 275.7,117.5 276.9,119.1 C278.1,120.6 279.6,121.9 281.5,122.8 C283.4,123.7 285.7,124.2 288.5,124.2 C291.2,124.2 293.5,123.7 295.5,122.8 C297.4,121.9 299,120.7 300.2,119.1 C301.4,117.6 302.3,115.8 302.8,113.8 C303.3,111.8 303.6,109.8 303.6,107.6 L303.6,59.3 L322.9,59.3 L322.9,109.2 C322.9,114.1 322.1,118.5 320.5,122.4 Z" id="Shape" fill="#F2F3F3" fill-rule="nonzero"></path>
                <path d="M117.1,265.3 C115.4,263.2 113.3,261.5 110.6,260.3 C107.9,259.1 105.3,258.4 102.9,258.4 C101.6,258.4 100.3,258.5 99,258.7 C97.7,258.9 96.5,259.4 95.4,260 C94.3,260.6 93.5,261.5 92.7,262.5 C92,263.5 91.6,264.8 91.6,266.4 C91.6,267.8 91.9,268.9 92.4,269.8 C93,270.7 93.8,271.5 94.9,272.2 C96,272.9 97.3,273.5 98.8,274.1 C100.3,274.7 102,275.2 103.9,275.9 C106.6,276.8 109.4,277.8 112.4,278.9 C115.3,280 118,281.4 120.4,283.3 C122.8,285.1 124.8,287.4 126.4,290 C128,292.7 128.8,296 128.8,300 C128.8,304.6 128,308.6 126.3,311.9 C124.6,315.3 122.3,318 119.5,320.2 C116.6,322.4 113.4,324 109.7,325.1 C106,326.2 102.2,326.7 98.3,326.7 C92.6,326.7 87,325.7 81.7,323.7 C76.3,321.7 71.9,318.9 68.4,315.2 L81.1,302.3 C83.1,304.7 85.6,306.7 88.8,308.3 C92,309.9 95.2,310.7 98.4,310.7 C99.8,310.7 101.2,310.5 102.6,310.2 C104,309.9 105.1,309.4 106.2,308.7 C107.2,308 108,307.1 108.6,306 C109.2,304.9 109.5,303.5 109.5,301.9 C109.5,300.4 109.1,299.1 108.4,298.1 C107.6,297 106.6,296.1 105.2,295.2 C103.8,294.3 102.1,293.5 100,292.8 C97.9,292.1 95.6,291.3 92.9,290.5 C90.3,289.7 87.8,288.7 85.4,287.6 C83,286.5 80.8,285 78.8,283.2 C76.9,281.4 75.3,279.3 74.2,276.8 C73,274.3 72.4,271.2 72.4,267.6 C72.4,263.2 73.3,259.3 75.1,256.2 C76.9,253 79.3,250.4 82.2,248.4 C85.1,246.4 88.5,244.9 92.1,243.9 C95.8,243 99.5,242.5 103.3,242.5 C107.8,242.5 112.4,243.3 117.1,245 C121.8,246.7 125.9,249.1 129.5,252.3 L117.1,265.3 Z" id="Shape" fill="#F2F3F3" fill-rule="nonzero"></path>
                <path d="M327.8,284.3 C327.8,291.3 326.5,297.4 323.9,302.4 C321.3,307.5 317.9,311.7 313.6,314.9 C309.3,318.2 304.5,320.6 299.2,322.1 C293.8,323.6 288.4,324.4 282.9,324.4 L253.1,324.4 L253.1,244.4 L282,244.4 C287.7,244.4 293.2,245.1 298.7,246.4 C304.2,247.7 309.1,249.9 313.4,253 C317.7,256.1 321.2,260.1 323.8,265.3 C326.5,270.4 327.8,276.8 327.8,284.3 Z M307.7,284.3 C307.7,279.8 307,276 305.5,273.1 C304,270.1 302.1,267.7 299.6,266 C297.1,264.2 294.4,263 291.2,262.2 C288.1,261.4 284.8,261.1 281.5,261.1 L272,261.1 L272,307.9 L281.2,307.9 C284.7,307.9 288,307.5 291.2,306.7 C294.4,305.9 297.2,304.6 299.7,302.8 C302.1,301 304.1,298.6 305.6,295.6 C307,292.5 307.7,288.8 307.7,284.3 Z" id="Shape" fill="#F2F3F3" fill-rule="nonzero"></path>
                <path d="M61.9,101.3 L61.9,101.1 C61.9,78.6 78.9,60.2 103.2,60.2 C118.1,60.2 127.1,65.2 134.4,72.4 L123.3,85.2 C117.2,79.7 111,76.3 103.1,76.3 C89.8,76.3 80.1,87.4 80.1,100.9 L80.1,101.1 C80.1,114.7 89.5,126 103.1,126 C112.1,126 117.7,122.4 123.9,116.7 L135,127.9 C126.9,136.6 117.8,142 102.6,142 C79.2,142 61.9,124 61.9,101.3 Z" id="Shape" fill="#F2F3F3" fill-rule="nonzero"></path>
                <g id="Group" fill-rule="nonzero" fill="#F2F3F3">
                    <rect id="Rectangle-path" x="0.2" y="0.4" width="387.6" height="11.6"></rect>
                    <rect id="Rectangle-path" x="0.2" y="376.8" width="387.6" height="11.6"></rect>
                    <rect id="Rectangle-path" x="376.6" y="0.3" width="11.6" height="387.6"></rect>
                    <rect id="Rectangle-path" x="0.2" y="0.3" width="11.6" height="387.6"></rect>
                    <rect id="Rectangle-path" x="0.2" y="188.3" width="387.6" height="11.6"></rect>
                    <rect id="Rectangle-path" x="187.1" y="0.3" width="11.6" height="387.6"></rect>
                </g>
            </g>
            <path d="M528.342339,148.835157 L519.494339,139.875157 C512.774339,146.147157 506.614339,150.067157 496.982339,150.067157 C481.974339,150.067157 471.110339,137.523157 471.110339,122.067157 C471.110339,106.611157 481.974339,94.291157 496.982339,94.291157 C505.942339,94.291157 512.662339,98.211157 518.934339,104.035157 L527.782339,93.843157 C520.278339,86.675157 511.542339,81.635157 497.094339,81.635157 C473.350339,81.635157 456.662339,99.891157 456.662339,122.291157 C456.662339,144.915157 473.686339,162.723157 496.534339,162.723157 C511.206339,162.723157 520.166339,157.347157 528.342339,148.835157 Z M621.722339,122.067157 C621.722339,144.243157 604.698339,162.723157 580.618339,162.723157 C556.538339,162.723157 539.738339,144.467157 539.738339,122.291157 C539.738339,100.115157 556.762339,81.635157 580.842339,81.635157 C604.922339,81.635157 621.722339,99.891157 621.722339,122.067157 Z M607.274339,122.291157 C607.274339,106.947157 596.186339,94.291157 580.618339,94.291157 C565.050339,94.291157 554.186339,106.723157 554.186339,122.067157 C554.186339,137.411157 565.274339,150.067157 580.842339,150.067157 C596.410339,150.067157 607.274339,137.635157 607.274339,122.291157 Z M707.598339,161.379157 L691.358339,161.379157 L672.094339,134.051157 L654.846339,134.051157 L654.846339,161.379157 L641.070339,161.379157 L641.070339,82.979157 L676.014339,82.979157 C694.046339,82.979157 705.134339,92.499157 705.134339,107.843157 C705.134339,120.835157 697.406339,128.675157 686.430339,131.699157 L707.598339,161.379157 Z M691.134339,108.627157 C691.134339,100.003157 685.086339,95.523157 674.894339,95.523157 L654.846339,95.523157 L654.846339,121.843157 L675.006339,121.843157 C684.862339,121.843157 691.134339,116.691157 691.134339,108.627157 Z M779.474339,137.187157 L737.474339,82.979157 L724.706339,82.979157 L724.706339,161.379157 L738.258339,161.379157 L738.258339,105.603157 L781.490339,161.379157 L793.026339,161.379157 L793.026339,82.979157 L779.474339,82.979157 L779.474339,137.187157 Z M873.974339,82.979157 L815.846339,82.979157 L815.846339,161.379157 L874.534339,161.379157 L874.534339,149.059157 L829.622339,149.059157 L829.622339,128.003157 L868.934339,128.003157 L868.934339,115.683157 L829.622339,115.683157 L829.622339,95.299157 L873.974339,95.299157 L873.974339,82.979157 Z M893.546339,161.379157 L948.538339,161.379157 L948.538339,148.835157 L907.322339,148.835157 L907.322339,82.979157 L893.546339,82.979157 L893.546339,161.379157 Z M965.534339,161.379157 L1020.52634,161.379157 L1020.52634,148.835157 L979.310339,148.835157 L979.310339,82.979157 L965.534339,82.979157 L965.534339,161.379157 Z M1139.63834,82.979157 L1125.86234,82.979157 L1125.86234,128.115157 C1125.86234,142.563157 1118.35834,149.955157 1106.15034,149.955157 C1093.83034,149.955157 1086.32634,142.115157 1086.32634,127.555157 L1086.32634,82.979157 L1072.55034,82.979157 L1072.55034,128.115157 C1072.55034,150.851157 1085.54234,162.611157 1105.92634,162.611157 C1126.42234,162.611157 1139.63834,150.851157 1139.63834,127.443157 L1139.63834,82.979157 Z M1215.99434,137.187157 L1173.99434,82.979157 L1161.22634,82.979157 L1161.22634,161.379157 L1174.77834,161.379157 L1174.77834,105.603157 L1218.01034,161.379157 L1229.54634,161.379157 L1229.54634,82.979157 L1215.99434,82.979157 L1215.99434,137.187157 Z M1253.15034,82.979157 L1253.15034,161.379157 L1266.92634,161.379157 L1266.92634,82.979157 L1253.15034,82.979157 Z M1322.67434,143.235157 L1299.04234,82.979157 L1283.81034,82.979157 L1316.40234,161.939157 L1328.49834,161.939157 L1361.09034,82.979157 L1346.19434,82.979157 L1322.67434,143.235157 Z M1435.31834,82.979157 L1377.19034,82.979157 L1377.19034,161.379157 L1435.87834,161.379157 L1435.87834,149.059157 L1390.96634,149.059157 L1390.96634,128.003157 L1430.27834,128.003157 L1430.27834,115.683157 L1390.96634,115.683157 L1390.96634,95.299157 L1435.31834,95.299157 L1435.31834,82.979157 Z M1521.41834,161.379157 L1505.17834,161.379157 L1485.91434,134.051157 L1468.66634,134.051157 L1468.66634,161.379157 L1454.89034,161.379157 L1454.89034,82.979157 L1489.83434,82.979157 C1507.86634,82.979157 1518.95434,92.499157 1518.95434,107.843157 C1518.95434,120.835157 1511.22634,128.675157 1500.25034,131.699157 L1521.41834,161.379157 Z M1504.95434,108.627157 C1504.95434,100.003157 1498.90634,95.523157 1488.71434,95.523157 L1468.66634,95.523157 L1468.66634,121.843157 L1488.82634,121.843157 C1498.68234,121.843157 1504.95434,116.691157 1504.95434,108.627157 Z M1550.17434,103.475157 C1550.17434,98.211157 1554.87834,94.067157 1562.94234,94.067157 C1570.11034,94.067157 1577.16634,96.867157 1584.22234,102.131157 L1591.61434,91.715157 C1583.66234,85.331157 1574.59034,81.859157 1563.16634,81.859157 C1547.59834,81.859157 1536.39834,91.043157 1536.39834,104.707157 C1536.39834,119.267157 1545.80634,124.195157 1562.49434,128.227157 C1577.05434,131.587157 1580.19034,134.611157 1580.19034,140.323157 C1580.19034,146.371157 1574.81434,150.291157 1566.30234,150.291157 C1556.55834,150.291157 1549.05434,146.595157 1541.55034,140.099157 L1533.26234,149.955157 C1542.67034,158.355157 1553.98234,162.499157 1565.96634,162.499157 C1582.43034,162.499157 1593.96634,153.763157 1593.96634,138.979157 C1593.96634,125.875157 1585.34234,119.939157 1568.76634,115.907157 C1553.75834,112.323157 1550.17434,109.635157 1550.17434,103.475157 Z M1613.65034,82.979157 L1613.65034,161.379157 L1627.42634,161.379157 L1627.42634,82.979157 L1613.65034,82.979157 Z M1684.18234,95.747157 L1709.04634,95.747157 L1709.04634,82.979157 L1645.43034,82.979157 L1645.43034,95.747157 L1670.29434,95.747157 L1670.29434,161.379157 L1684.18234,161.379157 L1684.18234,95.747157 Z M1763.22634,130.131157 L1794.36234,82.979157 L1778.57034,82.979157 L1756.39434,117.699157 L1734.44234,82.979157 L1718.20234,82.979157 L1749.33834,130.467157 L1749.33834,161.379157 L1763.22634,161.379157 L1763.22634,130.131157 Z M471.782339,238.475157 C471.782339,233.211157 476.486339,229.067157 484.550339,229.067157 C491.718339,229.067157 498.774339,231.867157 505.830339,237.131157 L513.222339,226.715157 C505.270339,220.331157 496.198339,216.859157 484.774339,216.859157 C469.206339,216.859157 458.006339,226.043157 458.006339,239.707157 C458.006339,254.267157 467.414339,259.195157 484.102339,263.227157 C498.662339,266.587157 501.798339,269.611157 501.798339,275.323157 C501.798339,281.371157 496.422339,285.291157 487.910339,285.291157 C478.166339,285.291157 470.662339,281.595157 463.158339,275.099157 L454.870339,284.955157 C464.278339,293.355157 475.590339,297.499157 487.574339,297.499157 C504.038339,297.499157 515.574339,288.763157 515.574339,273.979157 C515.574339,260.875157 506.950339,254.939157 490.374339,250.907157 C475.366339,247.323157 471.782339,244.635157 471.782339,238.475157 Z M600.330339,217.979157 L586.554339,217.979157 L586.554339,263.115157 C586.554339,277.563157 579.050339,284.955157 566.842339,284.955157 C554.522339,284.955157 547.018339,277.115157 547.018339,262.555157 L547.018339,217.979157 L533.242339,217.979157 L533.242339,263.115157 C533.242339,285.851157 546.234339,297.611157 566.618339,297.611157 C587.114339,297.611157 600.330339,285.851157 600.330339,262.443157 L600.330339,217.979157 Z M633.566339,238.475157 C633.566339,233.211157 638.270339,229.067157 646.334339,229.067157 C653.502339,229.067157 660.558339,231.867157 667.614339,237.131157 L675.006339,226.715157 C667.054339,220.331157 657.982339,216.859157 646.558339,216.859157 C630.990339,216.859157 619.790339,226.043157 619.790339,239.707157 C619.790339,254.267157 629.198339,259.195157 645.886339,263.227157 C660.446339,266.587157 663.582339,269.611157 663.582339,275.323157 C663.582339,281.371157 658.206339,285.291157 649.694339,285.291157 C639.950339,285.291157 632.446339,281.595157 624.942339,275.099157 L616.654339,284.955157 C626.062339,293.355157 637.374339,297.499157 649.358339,297.499157 C665.822339,297.499157 677.358339,288.763157 677.358339,273.979157 C677.358339,260.875157 668.734339,254.939157 652.158339,250.907157 C637.150339,247.323157 633.566339,244.635157 633.566339,238.475157 Z M727.730339,230.747157 L752.594339,230.747157 L752.594339,217.979157 L688.978339,217.979157 L688.978339,230.747157 L713.842339,230.747157 L713.842339,296.379157 L727.730339,296.379157 L727.730339,230.747157 Z M800.278339,217.419157 L834.774339,296.379157 L820.214339,296.379157 L812.262339,277.451157 L775.190339,277.451157 L767.126339,296.379157 L753.014339,296.379157 L787.510339,217.419157 L800.278339,217.419157 Z M807.222339,265.243157 L793.670339,233.883157 L780.230339,265.243157 L807.222339,265.243157 Z M851.658339,217.979157 L851.658339,296.379157 L865.434339,296.379157 L865.434339,217.979157 L851.658339,217.979157 Z M943.806339,272.187157 L901.806339,217.979157 L889.038339,217.979157 L889.038339,296.379157 L902.590339,296.379157 L902.590339,240.603157 L945.822339,296.379157 L957.358339,296.379157 L957.358339,217.979157 L943.806339,217.979157 L943.806339,272.187157 Z M1020.72234,217.419157 L1055.21834,296.379157 L1040.65834,296.379157 L1032.70634,277.451157 L995.634339,277.451157 L987.570339,296.379157 L973.458339,296.379157 L1007.95434,217.419157 L1020.72234,217.419157 Z M1027.66634,265.243157 L1014.11434,233.883157 L1000.67434,265.243157 L1027.66634,265.243157 Z M1106.48634,217.979157 C1122.27834,217.979157 1132.24634,225.707157 1132.24634,238.027157 C1132.24634,247.659157 1126.87034,252.587157 1121.04634,255.611157 C1130.23034,258.747157 1136.61434,264.011157 1136.61434,274.763157 C1136.61434,288.875157 1125.07834,296.379157 1107.60634,296.379157 L1071.31834,296.379157 L1071.31834,217.979157 L1106.48634,217.979157 Z M1103.68634,251.019157 C1112.53434,251.019157 1118.47034,247.547157 1118.47034,240.267157 C1118.47034,233.883157 1113.54234,230.187157 1104.69434,230.187157 L1084.87034,230.187157 L1084.87034,251.019157 L1103.68634,251.019157 Z M1107.71834,284.171157 C1117.12634,284.171157 1122.83834,280.475157 1122.83834,273.307157 C1122.83834,266.587157 1117.57434,262.667157 1106.71034,262.667157 L1084.87034,262.667157 L1084.87034,284.171157 L1107.71834,284.171157 Z M1154.84234,296.379157 L1209.83434,296.379157 L1209.83434,283.835157 L1168.61834,283.835157 L1168.61834,217.979157 L1154.84234,217.979157 L1154.84234,296.379157 Z M1284.95834,217.979157 L1226.83034,217.979157 L1226.83034,296.379157 L1285.51834,296.379157 L1285.51834,284.059157 L1240.60634,284.059157 L1240.60634,263.003157 L1279.91834,263.003157 L1279.91834,250.683157 L1240.60634,250.683157 L1240.60634,230.299157 L1284.95834,230.299157 L1284.95834,217.979157 Z M1411.68634,257.067157 C1411.68634,279.243157 1394.66234,296.379157 1370.02234,296.379157 L1340.79034,296.379157 L1340.79034,217.979157 L1370.02234,217.979157 C1394.66234,217.979157 1411.68634,234.891157 1411.68634,257.067157 Z M1397.23834,257.291157 C1397.23834,241.835157 1386.48634,230.523157 1370.02234,230.523157 L1354.56634,230.523157 L1354.56634,283.835157 L1370.02234,283.835157 C1386.48634,283.835157 1397.23834,272.747157 1397.23834,257.291157 Z M1489.16234,217.979157 L1431.03434,217.979157 L1431.03434,296.379157 L1489.72234,296.379157 L1489.72234,284.059157 L1444.81034,284.059157 L1444.81034,263.003157 L1484.12234,263.003157 L1484.12234,250.683157 L1444.81034,250.683157 L1444.81034,230.299157 L1489.16234,230.299157 L1489.16234,217.979157 Z M1520.38234,238.475157 C1520.38234,233.211157 1525.08634,229.067157 1533.15034,229.067157 C1540.31834,229.067157 1547.37434,231.867157 1554.43034,237.131157 L1561.82234,226.715157 C1553.87034,220.331157 1544.79834,216.859157 1533.37434,216.859157 C1517.80634,216.859157 1506.60634,226.043157 1506.60634,239.707157 C1506.60634,254.267157 1516.01434,259.195157 1532.70234,263.227157 C1547.26234,266.587157 1550.39834,269.611157 1550.39834,275.323157 C1550.39834,281.371157 1545.02234,285.291157 1536.51034,285.291157 C1526.76634,285.291157 1519.26234,281.595157 1511.75834,275.099157 L1503.47034,284.955157 C1512.87834,293.355157 1524.19034,297.499157 1536.17434,297.499157 C1552.63834,297.499157 1564.17434,288.763157 1564.17434,273.979157 C1564.17434,260.875157 1555.55034,254.939157 1538.97434,250.907157 C1523.96634,247.323157 1520.38234,244.635157 1520.38234,238.475157 Z M1583.85834,217.979157 L1583.85834,296.379157 L1597.63434,296.379157 L1597.63434,217.979157 L1583.85834,217.979157 Z M1691.12634,285.515157 L1691.12634,252.587157 L1657.75034,252.587157 L1657.75034,264.571157 L1677.79834,264.571157 L1677.79834,279.243157 C1672.98234,282.827157 1666.26234,285.179157 1658.87034,285.179157 C1642.85434,285.179157 1632.21434,273.307157 1632.21434,257.067157 C1632.21434,241.835157 1643.19034,229.291157 1657.63834,229.291157 C1667.60634,229.291157 1673.54234,232.539157 1679.59034,237.691157 L1688.32634,227.275157 C1680.26234,220.443157 1671.86234,216.635157 1658.19834,216.635157 C1634.56634,216.635157 1617.76634,235.227157 1617.76634,257.291157 C1617.76634,280.251157 1633.89434,297.723157 1658.42234,297.723157 C1672.31034,297.723157 1683.39834,292.123157 1691.12634,285.515157 Z M1766.47434,272.187157 L1724.47434,217.979157 L1711.70634,217.979157 L1711.70634,296.379157 L1725.25834,296.379157 L1725.25834,240.603157 L1768.49034,296.379157 L1780.02634,296.379157 L1780.02634,217.979157 L1766.47434,217.979157 L1766.47434,272.187157 Z" id="CORNELL-UNIVERSITY-S" fill="#777777"></path>
        </g>
    </g>
</svg>